<svg width="3576" height="1500" viewBox="0 0 3576 1500" fill="none" xmlns="http://www.w3.org/2000/svg">
<path d="M605 605C585.667 564.333 557.667 533 521 511C484.333 488.333 441.667 477 393 477C344.333 477 300.333 488.333 261 511C222.333 533 191.667 565 169 607C147 648.333 136 696.333 136 751C136 805.667 147 853.667 169 895C191.667 936.333 222.333 968.333 261 991C300.333 1013 344.333 1024 393 1024C461 1024 517 1003.67 561 963C605 922.333 630.667 867.333 638 798H360V724H735V794C729.667 851.333 711.667 904 681 952C650.333 999.333 610 1037 560 1065C510 1092.33 454.333 1106 393 1106C328.333 1106 269.333 1091 216 1061C162.667 1030.33 120.333 988 89 934C58.3333 880 43 819 43 751C43 683 58.3333 622 89 568C120.333 513.333 162.667 471 216 441C269.333 410.333 328.333 395 393 395C467 395 532.333 413.333 589 450C646.333 486.667 688 538.333 714 605H605ZM1355.32 805C1355.32 822.333 1354.32 840.667 1352.32 860H914.32C917.654 914 935.987 956.333 969.32 987C1003.32 1017 1044.32 1032 1092.32 1032C1131.65 1032 1164.32 1023 1190.32 1005C1216.99 986.333 1235.65 961.667 1246.32 931H1344.32C1329.65 983.667 1300.32 1026.67 1256.32 1060C1212.32 1092.67 1157.65 1109 1092.32 1109C1040.32 1109 993.654 1097.33 952.32 1074C911.654 1050.67 879.654 1017.67 856.32 975C832.987 931.667 821.32 881.667 821.32 825C821.32 768.333 832.654 718.667 855.32 676C877.987 633.333 909.654 600.667 950.32 578C991.654 554.667 1038.99 543 1092.32 543C1144.32 543 1190.32 554.333 1230.32 577C1270.32 599.667 1300.99 631 1322.32 671C1344.32 710.333 1355.32 755 1355.32 805ZM1261.32 786C1261.32 751.333 1253.65 721.667 1238.32 697C1222.99 671.667 1201.99 652.667 1175.32 640C1149.32 626.667 1120.32 620 1088.32 620C1042.32 620 1002.99 634.667 970.32 664C938.32 693.333 919.987 734 915.32 786H1261.32ZM1742.44 542C1809.1 542 1863.1 562.333 1904.44 603C1945.77 643 1966.44 701 1966.44 777V1100H1876.44V790C1876.44 735.333 1862.77 693.667 1835.44 665C1808.1 635.667 1770.77 621 1723.44 621C1675.44 621 1637.1 636 1608.44 666C1580.44 696 1566.44 739.667 1566.44 797V1100H1475.44V552H1566.44V630C1584.44 602 1608.77 580.333 1639.44 565C1670.77 549.667 1705.1 542 1742.44 542ZM2226.09 627V950C2226.09 976.667 2231.75 995.667 2243.09 1007C2254.42 1017.67 2274.09 1023 2302.09 1023H2369.09V1100H2287.09C2236.42 1100 2198.42 1088.33 2173.09 1065C2147.75 1041.67 2135.09 1003.33 2135.09 950V627H2064.09V552H2135.09V414H2226.09V552H2369.09V627H2226.09ZM3370.15 641C3386.15 609.667 3408.82 585.333 3438.15 568C3468.15 550.667 3504.48 542 3547.15 542V636H3523.15C3421.15 636 3370.15 691.333 3370.15 802V1100H3279.15V552H3370.15V641Z" fill="white"/>
<path d="M605 605L595.969 609.294L598.682 615H605V605ZM521 511L515.742 519.506L515.798 519.541L515.855 519.575L521 511ZM261 511L265.945 519.692L265.969 519.678L265.993 519.664L261 511ZM169 607L160.2 602.251L160.186 602.276L160.173 602.301L169 607ZM169 895L160.173 899.698L160.202 899.754L160.232 899.808L169 895ZM261 991L255.943 999.627L256.03 999.678L256.118 999.728L261 991ZM561 963L567.787 970.344L567.787 970.344L561 963ZM638 798L647.945 799.052L649.113 788H638V798ZM360 798H350V808H360V798ZM360 724V714H350V724H360ZM735 724H745V714H735V724ZM735 794L744.957 794.926L745 794.464V794H735ZM681 952L689.393 957.437L689.41 957.411L689.427 957.384L681 952ZM560 1065L564.797 1073.77L564.842 1073.75L564.886 1073.73L560 1065ZM216 1061L211.015 1069.67L211.056 1069.69L211.097 1069.72L216 1061ZM89 934L80.3044 938.938L80.3273 938.979L80.3506 939.019L89 934ZM89 568L80.3241 563.027L80.3142 563.044L80.3044 563.062L89 568ZM216 441L220.903 449.716L220.944 449.693L220.985 449.669L216 441ZM589 450L583.568 458.396L583.59 458.41L583.612 458.424L589 450ZM714 605V615H728.634L723.317 601.367L714 605ZM614.031 600.706C593.9 558.36 564.592 525.493 526.145 502.425L515.855 519.575C550.741 540.506 577.434 570.306 595.969 609.294L614.031 600.706ZM526.258 502.494C487.815 478.729 443.278 467 393 467V487C440.055 487 480.852 497.938 515.742 519.506L526.258 502.494ZM393 467C342.711 467 296.968 478.731 256.007 502.336L265.993 519.664C303.699 497.936 345.955 487 393 487V467ZM256.055 502.308C215.64 525.303 183.689 558.726 160.2 602.251L177.8 611.749C199.644 571.274 229.027 540.697 265.945 519.692L256.055 502.308ZM160.173 602.301C137.283 645.306 126 694.97 126 751H146C146 697.697 156.717 651.36 177.827 611.698L160.173 602.301ZM126 751C126 807.03 137.283 856.694 160.173 899.698L177.827 890.301C156.717 850.639 146 804.303 146 751H126ZM160.232 899.808C183.721 942.641 215.635 975.998 255.943 999.627L266.057 982.373C229.032 960.669 199.613 930.026 177.768 890.192L160.232 899.808ZM256.118 999.728C297.062 1022.63 342.765 1034 393 1034V1014C345.902 1014 303.605 1003.37 265.882 982.272L256.118 999.728ZM393 1034C463.151 1034 521.688 1012.95 567.787 970.344L554.213 955.656C512.312 994.382 458.849 1014 393 1014V1034ZM567.787 970.344C613.854 927.767 640.4 870.378 647.945 799.052L628.055 796.948C620.933 864.289 596.146 916.899 554.213 955.656L567.787 970.344ZM638 788H360V808H638V788ZM370 798V724H350V798H370ZM360 734H735V714H360V734ZM725 724V794H745V724H725ZM725.043 793.074C719.856 848.839 702.372 899.974 672.573 946.616L689.427 957.384C720.961 908.026 739.478 853.828 744.957 794.926L725.043 793.074ZM672.608 946.563C642.84 992.509 603.719 1029.06 555.114 1056.27L564.886 1073.73C616.281 1044.94 657.827 1006.16 689.393 957.437L672.608 946.563ZM555.203 1056.23C506.786 1082.69 452.789 1096 393 1096V1116C455.878 1116 513.214 1101.97 564.797 1073.77L555.203 1056.23ZM393 1096C329.95 1096 272.653 1081.39 220.903 1052.28L211.097 1069.72C266.013 1100.61 326.717 1116 393 1116V1096ZM220.985 1052.33C169.195 1022.55 128.116 981.488 97.6494 928.981L80.3506 939.019C112.551 994.512 156.138 1038.11 211.015 1069.67L220.985 1052.33ZM97.6956 929.062C67.9636 876.708 53 817.438 53 751H33C33 820.562 48.7031 883.292 80.3044 938.938L97.6956 929.062ZM53 751C53 684.562 67.9636 625.292 97.6956 572.938L80.3044 563.062C48.7031 618.708 33 681.438 33 751H53ZM97.6759 572.973C128.14 519.823 169.19 478.804 220.903 449.716L211.097 432.284C156.143 463.196 112.527 506.844 80.3241 563.027L97.6759 572.973ZM220.985 449.669C272.723 419.92 329.99 405 393 405V385C326.677 385 265.944 400.747 211.015 432.331L220.985 449.669ZM393 405C465.265 405 528.674 422.876 583.568 458.396L594.433 441.604C535.993 403.79 468.735 385 393 385V405ZM583.612 458.424C639.066 493.889 679.411 543.831 704.684 608.633L723.317 601.367C696.589 532.835 653.6 479.444 594.388 441.575L583.612 458.424ZM714 595H605V615H714V595ZM1352.32 860V870H1361.34L1362.27 861.029L1352.32 860ZM914.32 860V850H903.684L904.339 860.616L914.32 860ZM969.32 987L962.55 994.359L962.626 994.43L962.704 994.498L969.32 987ZM1190.32 1005L1196.01 1013.22L1196.03 1013.21L1196.05 1013.19L1190.32 1005ZM1246.32 931V921H1239.21L1236.88 927.715L1246.32 931ZM1344.32 931L1353.95 933.683L1357.49 921H1344.32V931ZM1256.32 1060L1262.28 1068.03L1262.32 1068L1262.36 1067.97L1256.32 1060ZM952.32 1074L947.344 1082.67L947.374 1082.69L947.404 1082.71L952.32 1074ZM856.32 975L847.516 979.741L847.531 979.77L847.547 979.798L856.32 975ZM855.32 676L864.151 680.692L864.151 680.692L855.32 676ZM950.32 578L955.189 586.735L955.213 586.722L955.236 586.708L950.32 578ZM1230.32 577L1225.39 585.7L1225.39 585.7L1230.32 577ZM1322.32 671L1313.5 675.706L1313.54 675.794L1313.59 675.882L1322.32 671ZM1261.32 786V796H1271.32V786H1261.32ZM1238.32 697L1229.77 702.178L1229.8 702.229L1229.83 702.279L1238.32 697ZM1175.32 640L1170.76 648.898L1170.89 648.968L1171.03 649.033L1175.32 640ZM970.32 664L963.639 656.559L963.601 656.594L963.563 656.628L970.32 664ZM915.32 786L905.36 785.106L904.383 796H915.32V786ZM1345.32 805C1345.32 821.951 1344.34 839.939 1342.37 858.971L1362.27 861.029C1364.3 841.394 1365.32 822.715 1365.32 805H1345.32ZM1352.32 850H914.32V870H1352.32V850ZM904.339 860.616C907.799 916.66 926.955 961.612 962.55 994.359L976.091 979.641C945.019 951.054 927.508 911.34 924.301 859.384L904.339 860.616ZM962.704 994.498C998.644 1026.21 1042.04 1042 1092.32 1042V1022C1046.6 1022 1008 1007.79 975.937 979.502L962.704 994.498ZM1092.32 1042C1133.19 1042 1167.97 1032.63 1196.01 1013.22L1184.63 996.778C1160.67 1013.37 1130.12 1022 1092.32 1022V1042ZM1196.05 1013.19C1224.44 993.324 1244.41 966.942 1255.77 934.285L1236.88 927.715C1226.9 956.391 1209.54 979.343 1184.59 996.808L1196.05 1013.19ZM1246.32 941H1344.32V921H1246.32V941ZM1334.69 928.317C1320.61 978.853 1292.56 1020 1250.28 1052.03L1262.36 1067.97C1308.09 1033.33 1338.69 988.48 1353.95 933.683L1334.69 928.317ZM1250.36 1051.97C1208.4 1083.13 1155.93 1099 1092.32 1099V1119C1159.38 1119 1216.25 1102.21 1262.28 1068.03L1250.36 1051.97ZM1092.32 1099C1041.87 1099 996.929 1087.7 957.236 1065.29L947.404 1082.71C990.378 1106.97 1038.77 1119 1092.32 1119V1099ZM957.297 1065.33C918.29 1042.95 887.578 1011.31 865.094 970.202L847.547 979.798C871.73 1024.02 905.017 1058.39 947.344 1082.67L957.297 1065.33ZM865.125 970.259C842.688 928.59 831.32 880.264 831.32 825H811.32C811.32 883.069 823.286 934.743 847.516 979.741L865.125 970.259ZM831.32 825C831.32 769.686 842.375 721.683 864.151 680.692L846.489 671.308C822.932 715.651 811.32 766.981 811.32 825H831.32ZM864.151 680.692C885.95 639.658 916.271 608.427 955.189 586.735L945.452 569.265C903.037 592.906 870.024 627.008 846.489 671.308L864.151 680.692ZM955.236 586.708C994.891 564.322 1040.49 553 1092.32 553V533C1037.48 533 988.416 545.011 945.404 569.292L955.236 586.708ZM1092.32 553C1142.82 553 1187.08 563.992 1225.39 585.7L1235.25 568.3C1193.56 544.674 1145.82 533 1092.32 533V553ZM1225.39 585.7C1263.76 607.446 1293.07 637.405 1313.5 675.706L1331.14 666.294C1308.9 624.595 1276.88 591.888 1235.25 568.3L1225.39 585.7ZM1313.59 675.882C1334.67 713.565 1345.32 756.518 1345.32 805H1365.32C1365.32 753.482 1353.97 707.102 1331.05 666.118L1313.59 675.882ZM1271.32 786C1271.32 749.832 1263.31 718.256 1246.81 691.721L1229.83 702.279C1244 725.078 1251.32 752.835 1251.32 786H1271.32ZM1246.88 691.822C1230.53 664.819 1208.05 644.476 1179.61 630.967L1171.03 649.033C1195.92 660.857 1215.44 678.514 1229.77 702.178L1246.88 691.822ZM1179.88 631.102C1152.34 616.977 1121.75 610 1088.32 610V630C1118.89 630 1146.3 636.356 1170.76 648.898L1179.88 631.102ZM1088.32 610C1039.98 610 998.235 625.494 963.639 656.559L977.002 671.44C1007.74 643.839 1044.66 630 1088.32 630V610ZM963.563 656.628C929.367 687.975 910.202 731.154 905.36 785.106L925.28 786.894C929.772 736.846 947.274 698.692 977.078 671.372L963.563 656.628ZM915.32 796H1261.32V776H915.32V796ZM1904.44 603L1897.42 610.128L1897.45 610.157L1897.48 610.186L1904.44 603ZM1966.44 1100V1110H1976.44V1100H1966.44ZM1876.44 1100H1866.44V1110H1876.44V1100ZM1835.44 665L1828.12 671.817L1828.16 671.859L1828.2 671.901L1835.44 665ZM1608.44 666L1601.21 659.091L1601.17 659.134L1601.13 659.177L1608.44 666ZM1566.44 1100V1110H1576.44V1100H1566.44ZM1475.44 1100H1465.44V1110H1475.44V1100ZM1475.44 552V542H1465.44V552H1475.44ZM1566.44 552H1576.44V542H1566.44V552ZM1566.44 630H1556.44V664.048L1574.85 635.408L1566.44 630ZM1639.44 565L1635.04 556.018L1635 556.037L1634.97 556.056L1639.44 565ZM1742.44 552C1806.91 552 1858.24 571.58 1897.42 610.128L1911.45 595.872C1867.96 553.087 1811.3 532 1742.44 532V552ZM1897.48 610.186C1936.3 647.753 1956.44 702.802 1956.44 777H1976.44C1976.44 699.198 1955.24 638.247 1911.39 595.814L1897.48 610.186ZM1956.44 777V1100H1976.44V777H1956.44ZM1966.44 1090H1876.44V1110H1966.44V1090ZM1886.44 1100V790H1866.44V1100H1886.44ZM1886.44 790C1886.44 733.753 1872.36 689.236 1842.67 658.099L1828.2 671.901C1853.18 698.097 1866.44 736.914 1866.44 790H1886.44ZM1842.75 658.183C1813.19 626.452 1773 611 1723.44 611V631C1768.54 631 1803.02 644.881 1828.12 671.817L1842.75 658.183ZM1723.44 611C1673.17 611 1632.06 626.803 1601.21 659.091L1615.67 672.909C1642.15 645.197 1677.7 631 1723.44 631V611ZM1601.13 659.177C1570.81 691.655 1556.44 738.145 1556.44 797H1576.44C1576.44 741.188 1590.06 700.345 1615.75 672.823L1601.13 659.177ZM1556.44 797V1100H1576.44V797H1556.44ZM1566.44 1090H1475.44V1110H1566.44V1090ZM1485.44 1100V552H1465.44V1100H1485.44ZM1475.44 562H1566.44V542H1475.44V562ZM1556.44 552V630H1576.44V552H1556.44ZM1574.85 635.408C1591.85 608.966 1614.8 588.499 1643.91 573.944L1634.97 556.056C1602.74 572.167 1577.03 595.034 1558.03 624.592L1574.85 635.408ZM1643.83 573.982C1673.7 559.365 1706.52 552 1742.44 552V532C1703.69 532 1667.84 539.968 1635.04 556.018L1643.83 573.982ZM2226.09 627V617H2216.09V627H2226.09ZM2243.09 1007L2236.01 1014.07L2236.12 1014.18L2236.23 1014.28L2243.09 1007ZM2369.09 1023H2379.09V1013H2369.09V1023ZM2369.09 1100V1110H2379.09V1100H2369.09ZM2173.09 1065L2166.31 1072.36L2173.09 1065ZM2135.09 627H2145.09V617H2135.09V627ZM2064.09 627H2054.09V637H2064.09V627ZM2064.09 552V542H2054.09V552H2064.09ZM2135.09 552V562H2145.09V552H2135.09ZM2135.09 414V404H2125.09V414H2135.09ZM2226.09 414H2236.09V404H2226.09V414ZM2226.09 552H2216.09V562H2226.09V552ZM2369.09 552H2379.09V542H2369.09V552ZM2369.09 627V637H2379.09V627H2369.09ZM2216.09 627V950H2236.09V627H2216.09ZM2216.09 950C2216.09 977.653 2221.89 999.945 2236.01 1014.07L2250.16 999.929C2241.62 991.389 2236.09 975.68 2236.09 950H2216.09ZM2236.23 1014.28C2250.43 1027.64 2273.38 1033 2302.09 1033V1013C2274.79 1013 2258.41 1007.69 2249.94 999.718L2236.23 1014.28ZM2302.09 1033H2369.09V1013H2302.09V1033ZM2359.09 1023V1100H2379.09V1023H2359.09ZM2369.09 1090H2287.09V1110H2369.09V1090ZM2287.09 1090C2237.77 1090 2202.64 1078.63 2179.86 1057.64L2166.31 1072.36C2194.2 1098.04 2235.07 1110 2287.09 1110V1090ZM2179.86 1057.64C2157.48 1037.03 2145.09 1002.05 2145.09 950H2125.09C2125.09 1004.61 2138.02 1046.3 2166.31 1072.36L2179.86 1057.64ZM2145.09 950V627H2125.09V950H2145.09ZM2135.09 617H2064.09V637H2135.09V617ZM2074.09 627V552H2054.09V627H2074.09ZM2064.09 562H2135.09V542H2064.09V562ZM2145.09 552V414H2125.09V552H2145.09ZM2135.09 424H2226.09V404H2135.09V424ZM2216.09 414V552H2236.09V414H2216.09ZM2226.09 562H2369.09V542H2226.09V562ZM2359.09 552V627H2379.09V552H2359.09ZM2369.09 617H2226.09V637H2369.09V617ZM3370.15 641H3360.15L3379.05 645.548L3370.15 641ZM3438.15 568L3433.15 559.341L3433.1 559.366L3433.06 559.391L3438.15 568ZM3547.15 542H3557.15V532H3547.15V542ZM3547.15 636V646H3557.15V636H3547.15ZM3370.15 1100V1110H3380.15V1100H3370.15ZM3279.15 1100H3269.15V1110H3279.15V1100ZM3279.15 552V542H3269.15V552H3279.15ZM3370.15 552H3380.15V542H3370.15V552ZM3379.05 645.548C3394.22 615.845 3415.59 592.945 3443.24 576.609L3433.06 559.391C3402.04 577.721 3378.07 603.488 3361.24 636.452L3379.05 645.548ZM3443.15 576.659C3471.32 560.386 3505.83 552 3547.15 552V532C3503.13 532 3464.98 540.947 3433.15 559.341L3443.15 576.659ZM3537.15 542V636H3557.15V542H3537.15ZM3547.15 626H3523.15V646H3547.15V626ZM3523.15 626C3470.39 626 3429.04 640.349 3401.05 670.723C3373.19 700.943 3360.15 745.318 3360.15 802H3380.15C3380.15 748.015 3392.6 709.391 3415.75 684.277C3438.76 659.318 3473.91 646 3523.15 646V626ZM3360.15 802V1100H3380.15V802H3360.15ZM3370.15 1090H3279.15V1110H3370.15V1090ZM3289.15 1100V552H3269.15V1100H3289.15ZM3279.15 562H3370.15V542H3279.15V562ZM3360.15 552V641H3380.15V552H3360.15Z" fill="white"/>
<path d="M2580.73 516.733L2481 616.333V679.133C2481 740.333 2481 741.933 2483.67 744.733C2487.27 748.6 2494.87 748.733 2498.07 745C2500.07 742.6 2500.47 737.933 2501 707.533L2501.67 672.867L2519.27 715.533L2537 758.333L2519.27 801.133L2501.67 843.8L2501 809.133C2500.47 778.733 2500.07 774.067 2498.07 771.667C2494.87 767.933 2487.27 768.067 2483.67 771.933C2481 774.733 2481 776.333 2481 837.533V900.333L2580.73 999.933L2680.33 1099.67H2822.33H2964.33L3063.93 999.933L3163.67 900.333V758.333V616.333L3063.93 516.733L2964.33 417H2822.33H2680.33L2580.73 516.733ZM2907.53 437.533C2907.27 437.8 2887.93 445.933 2864.73 455.533L2822.47 473L2780.07 455.533C2756.73 445.933 2737.4 437.8 2737.13 437.533C2736.87 437.267 2775.13 437 2822.33 437C2869.53 437 2907.8 437.267 2907.53 437.533ZM2747.67 463.667C2770.73 473.267 2791.13 481.667 2793 482.467C2795.93 483.8 2793.13 485.133 2764.33 497.133C2746.73 504.333 2731.8 510.2 2731.27 509.933C2730.6 509.8 2726.6 501.133 2722.33 491C2718.2 480.733 2712.33 466.467 2709.27 459.267C2706.33 452.2 2704.33 446.333 2704.87 446.333C2705.4 446.333 2724.6 454.2 2747.67 463.667ZM2934.87 460.6C2931.53 468.6 2925.8 482.467 2922.07 491.667C2918.33 500.867 2914.87 508.867 2914.2 509.533C2913.67 510.067 2898.73 504.6 2880.87 497.267L2848.47 483.8L2853.67 481.667C2856.6 480.467 2876.73 472.2 2898.33 463.133C2919.93 454.067 2938.33 446.6 2939.27 446.467C2940.2 446.333 2938.33 452.467 2934.87 460.6ZM2698.87 486.333C2706.07 503.933 2711.8 518.6 2711.53 518.867C2710.07 520.067 2648.47 545 2648.07 544.467C2647.4 543.8 2684.07 454.467 2685 454.333C2685.4 454.333 2691.67 468.733 2698.87 486.333ZM2978.73 499.133C2988.87 523.8 2996.87 544.2 2996.6 544.467C2996.2 544.867 2934.73 520.067 2933.13 518.733C2932.47 518.333 2958.73 454.333 2959.67 454.333C2960.07 454.333 2968.6 474.6 2978.73 499.133ZM2653.93 475.933C2653 478.333 2645 497.533 2636.33 518.467L2620.6 556.6L2582.47 572.333C2561.53 581 2542.2 589 2539.67 590.067C2536.2 591.4 2550.73 576.067 2595 531.8C2627.93 498.733 2655.13 471.667 2655.4 471.667C2655.53 471.667 2654.87 473.667 2653.93 475.933ZM3049.67 531.8C3093.53 575.667 3108.47 591.4 3105 589.933C3102.47 589 3083.13 581 3062.2 572.333L3024.07 556.6L3008.33 518.467C2999.67 497.533 2991.67 478.333 2990.73 475.933C2989.8 473.667 2989.13 471.667 2989.27 471.667C2989.53 471.667 3016.73 498.733 3049.67 531.8ZM2857 509C2875 516.467 2890.47 522.867 2891.4 523.267C2893 523.933 2825.4 553 2822.33 553C2821.8 553 2805.67 546.467 2786.47 538.467L2751.53 524.067L2786.6 509.267C2805.93 501.267 2822.33 494.867 2823 495C2823.8 495.267 2839 501.533 2857 509ZM2767.4 552.333C2783 558.733 2795.53 564.2 2795.4 564.333C2794.6 565.133 2704.47 602.333 2704.2 601.933C2704.07 601.8 2709.93 587.133 2717.27 569.4L2730.73 537.133L2734.87 538.867C2737.13 539.8 2751.8 545.8 2767.4 552.333ZM2927.53 569.8C2934.73 587.267 2940.6 601.8 2940.47 601.933C2940.2 602.2 2868.73 572.867 2851.13 565.267C2849.27 564.467 2856.47 561 2881.13 550.733C2899 543.4 2913.8 537.4 2913.93 537.533C2914.07 537.667 2920.2 552.2 2927.53 569.8ZM2691.93 578.333L2677.4 613.4L2642.47 627.933C2623.13 635.933 2607.27 642.333 2607.13 642.067C2607 641.8 2613.4 625.933 2621.4 606.867L2635.93 571.933L2670.73 557.4C2689.93 549.4 2705.8 543 2706.07 543.133C2706.33 543.267 2699.93 559.133 2691.93 578.333ZM3008.47 572.067C3008.73 572.333 3015.53 588.2 3023.53 607.533C3033.8 632.2 3037.4 642.2 3035.8 641.667C3034.6 641.267 3018.73 634.733 3000.47 627.133L2967.27 613.4L2953.4 580.2C2945.8 561.933 2939.27 546.067 2939 544.867C2938.47 543.267 2948.33 546.733 2973.13 557.133C2992.33 565.133 3008.33 571.8 3008.47 572.067ZM2886.73 601.667C2921.4 616.067 2950.33 628.467 2951.27 629.4C2953 631.133 3005 755.933 3005 758.333C3005 760.733 2953 885.533 2951.27 887.267C2949.53 889 2824.87 941 2822.47 941C2820.07 941 2695.13 889 2693.4 887.267C2691.67 885.533 2639.67 760.733 2639.67 758.333C2639.67 755.933 2691.67 631.133 2693.4 629.4C2695.13 627.667 2819.27 575.8 2822.07 575.667C2823 575.667 2852.07 587.4 2886.73 601.667ZM2608.6 585.267C2606.47 590.867 2583.13 647.133 2582.87 647.533C2582.6 647.8 2568.07 642.067 2550.47 634.867C2532.87 627.667 2518.87 621.267 2519.4 620.733C2520.47 619.667 2606.33 583.8 2608.2 583.667C2608.73 583.667 2609 584.467 2608.6 585.267ZM3083.27 602.733C3106.87 612.333 3126.33 620.6 3126.33 621C3126.33 621.933 3062.33 648.2 3061.8 647.533C3061.53 647.133 3038.07 590.733 3035.93 585.133C3035 582.733 3031.13 581.267 3083.27 602.733ZM2557.67 659.533C2566.47 663.133 2573.8 666.6 2573.93 667.267C2574.2 667.8 2568.33 682.733 2561.13 700.333C2549.4 728.6 2547.67 731.933 2546.6 729C2545.8 727.133 2537.4 706.733 2527.8 683.667C2518.2 660.6 2510.33 641.4 2510.33 640.867C2510.33 639.933 2515.67 642.067 2557.67 659.533ZM2647.53 685.8C2637.13 710.6 2628.6 731.133 2628.47 731.4C2628.2 731.667 2617.8 707.133 2602.87 670.867L2601.13 666.733L2633.4 653.4C2651.13 646.067 2665.8 640.067 2665.93 640.2C2666.07 640.333 2657.8 660.867 2647.53 685.8ZM3015.93 655.267L3043.53 666.6L3041.8 670.867C3026.73 707.667 3016.47 731.667 3016.2 731.4C3015.93 731.133 2984.73 656.067 2978.73 641.267C2978.2 639.933 2979.27 640.067 2983.13 641.667C2986.07 642.867 3000.73 649 3015.93 655.267ZM3116.87 683.667C3107.27 706.733 3098.87 727.133 3098.07 729C3097 731.933 3095.27 728.6 3083.53 700.333C3076.33 682.733 3070.47 667.8 3070.73 667.267C3071.13 665.8 3133.53 639.933 3134.07 640.867C3134.2 641.4 3126.47 660.6 3116.87 683.667ZM3143.4 801.133L3143 843.8L3125.4 801.133L3107.67 758.333L3125.4 715.533L3143 672.867L3143.4 715.533C3143.53 739.133 3143.53 777.533 3143.4 801.133ZM2617 758.333C2617 758.867 2610.47 775 2602.6 794.2L2588.07 829.267L2573.4 793.8L2558.6 758.333L2573.4 722.867L2588.07 687.4L2602.6 722.467C2610.47 741.667 2617 757.8 2617 758.333ZM3071.53 723.4L3086.07 758.333L3071.27 793.8L3056.6 829.133L3051.67 817.4C3049 811 3042.47 795 3037 781.933L3027.27 758.333L3041.8 723.133C3049.8 703.8 3056.47 688.067 3056.73 688.2C3056.87 688.467 3063.53 704.333 3071.53 723.4ZM2573.93 849.4C2573.53 850.867 2511.13 876.867 2510.6 875.8C2510.47 875.267 2518.2 856.067 2527.8 833C2537.4 809.933 2545.8 789.533 2546.6 787.667C2547.67 784.733 2549.4 788.067 2561.13 816.333C2568.33 833.933 2574.2 848.867 2573.93 849.4ZM2647.53 830.867C2657.8 855.8 2666.07 876.333 2665.93 876.467C2665.8 876.6 2651.13 870.6 2633.4 863.267L2601.13 849.933L2602.87 845.8C2617.93 809.267 2628.2 785 2628.47 785.267C2628.6 785.533 2637.13 806.067 2647.53 830.867ZM3030.2 817.667C3037.53 835.267 3043.27 849.8 3043.13 849.933C3042.47 850.6 2979 876.733 2978.73 876.467C2978.6 876.333 2986.87 855.667 2997.27 830.6C3007.67 805.533 3016.33 785.267 3016.47 785.4C3016.73 785.667 3022.87 800.2 3030.2 817.667ZM3116.33 831.4C3126.47 855.8 3134.47 875.933 3134.2 876.2C3133.67 876.6 3072.07 851.133 3070.87 849.933C3070.33 849.533 3075.93 834.733 3083.13 817.133C3090.47 799.667 3096.73 785.667 3097.13 786.067C3097.53 786.6 3106.2 807 3116.33 831.4ZM2596.07 900.6C2603.13 917.933 2608.73 932.333 2608.47 932.6C2607.93 933.267 2520.87 897.4 2519.4 895.933C2518.6 895.133 2578.33 869.4 2581.67 869.133C2582.47 869.133 2588.87 883.267 2596.07 900.6ZM3094.73 881.933C3112.07 889.133 3126.33 895.267 3126.33 895.667C3126.2 896.6 3036.87 933.267 3036.2 932.6C3035.53 931.933 3061.4 869 3062.33 869C3062.73 869 3077.27 874.867 3094.73 881.933ZM2644.47 889.533L2677.4 903.267L2691.27 936.467C2698.87 954.733 2705.27 970.6 2705.67 971.8C2706.2 973.4 2695.93 969.667 2671.4 959.4C2652.2 951.4 2636.33 944.733 2636.07 944.467C2635.8 944.333 2629.13 928.467 2621.13 909.133C2609.67 881.667 2607.13 874.467 2609.13 875C2610.47 875.4 2626.33 882.067 2644.47 889.533ZM3022.87 910.6L3008.73 944.733L2973.93 959.267C2954.73 967.267 2938.87 973.8 2938.6 973.533C2938.33 973.4 2944.73 957.533 2952.73 938.333L2967.13 903.267L3001.8 889C3020.73 881 3036.47 875 3036.73 875.533C3036.87 876.067 3030.73 891.8 3022.87 910.6ZM2751 933.667C2775.27 943.667 2795.13 952.067 2795.4 952.333C2795.67 952.6 2781.67 958.467 2734.87 977.8L2730.6 979.533L2719.27 951.933C2713 936.733 2706.87 922.067 2705.67 919.133C2704.07 915.267 2703.93 914.2 2705.27 914.733C2706.2 915 2726.87 923.533 2751 933.667ZM2938.87 919.267C2937.8 922.067 2931.67 936.733 2925.4 951.933L2914.07 979.533L2909.13 977.533C2906.47 976.467 2891.8 970.333 2876.47 963.933C2861.13 957.667 2849.13 952.333 2849.8 952.067C2850.47 951.8 2870.87 943.267 2895 933.133C2919.27 922.867 2939.4 914.6 2940.07 914.467C2940.6 914.333 2940.07 916.6 2938.87 919.267ZM2582.47 944.333L2620.6 960.067L2636.33 998.2C2645 1019.13 2653 1038.33 2653.93 1040.6C2654.87 1043 2655.53 1045 2655.4 1045C2655.13 1045 2627.93 1017.93 2595 984.867C2550.73 940.6 2536.2 925.267 2539.67 926.6C2542.2 927.667 2561.53 935.667 2582.47 944.333ZM3109 925.4C3109 925.533 3081.93 952.733 3048.87 985.667C3004.87 1029.67 2989.27 1044.47 2990.73 1041C2991.67 1038.47 2999.67 1019.13 3008.33 998.2L3024.07 960.067L3066.2 942.6C3110.47 924.2 3109 924.867 3109 925.4ZM2858.33 978.2L2893.27 992.6L2883.53 996.733C2878.07 999 2862.07 1005.53 2848.07 1011.4L2822.33 1022.07L2786.87 1007.27L2751.4 992.6L2785.93 978.2C2804.87 970.333 2821 963.8 2821.93 963.8C2822.73 963.667 2839.13 970.2 2858.33 978.2ZM2681.27 985.133C2697.67 991.8 2711.27 997.533 2711.53 997.8C2712.2 998.467 2685.93 1062.33 2685 1062.33C2684.47 1062.33 2651.93 984.067 2648.2 973.8C2647.4 971.8 2647.67 971.4 2649.4 972.067C2650.47 972.467 2664.87 978.333 2681.27 985.133ZM2996.47 973.933C2992.87 983.933 2960.2 1062.33 2959.67 1062.33C2958.73 1062.33 2932.47 998.333 2933.13 997.933C2934.2 997.133 2995 971.933 2996.2 971.8C2996.73 971.667 2996.87 972.733 2996.47 973.933ZM2764.2 1019.53C2781.67 1026.73 2795.4 1033 2794.87 1033.27C2791.53 1035.27 2704.87 1070.6 2704.47 1070.2C2704.2 1069.93 2709.4 1057.13 2715.8 1041.67C2722.2 1026.2 2728.07 1012.07 2728.87 1009.93C2729.53 1007.93 2730.73 1006.33 2731.27 1006.33C2731.93 1006.33 2746.73 1012.2 2764.2 1019.53ZM2927.53 1038.33C2934.73 1055.53 2940.47 1069.93 2940.2 1070.07C2939.93 1070.47 2896.87 1053 2853.8 1035L2848.47 1032.73L2879.8 1019.67C2897 1012.47 2911.8 1006.73 2912.73 1006.87C2913.8 1006.87 2920.33 1021 2927.53 1038.33ZM2866.73 1062.07L2907.8 1079L2865.13 1079.4C2841.53 1079.53 2803.13 1079.53 2779.53 1079.4L2736.87 1079L2779.27 1061.4C2802.6 1051.8 2822.6 1044.07 2823.67 1044.47C2824.73 1044.73 2844.2 1052.73 2866.73 1062.07Z" fill="white"/>
</svg>
