<?xml version="1.0" standalone="no"?>
<!DOCTYPE svg PUBLIC "-//W3C//DTD SVG 20010904//EN"
 "http://www.w3.org/TR/2001/REC-SVG-20010904/DTD/svg10.dtd">
<svg version="1.0" xmlns="http://www.w3.org/2000/svg"
 width="512.000000pt" height="512.000000pt" viewBox="0 0 512.000000 512.000000"
 preserveAspectRatio="xMidYMid meet">

<g transform="translate(0.000000,512.000000) scale(0.100000,-0.100000)"
fill="#000000" stroke="none">
<path d="M748 4372 l-748 -747 0 -471 c0 -459 0 -471 20 -492 27 -29 84 -30
108 -2 15 18 18 53 22 281 l5 260 132 -320 133 -321 -133 -321 -132 -320 -5
260 c-4 228 -7 263 -22 281 -24 28 -81 27 -108 -2 -20 -21 -20 -33 -20 -492
l0 -471 748 -747 747 -748 1065 0 1065 0 747 748 748 747 0 1065 0 1065 -748
747 -747 748 -1065 0 -1065 0 -747 -748z m2451 594 c-2 -2 -147 -63 -321 -135
l-317 -131 -318 131 c-175 72 -320 133 -322 135 -2 2 285 4 639 4 354 0 641
-2 639 -4z m-1199 -196 c173 -72 326 -135 340 -141 22 -10 1 -20 -215 -110
-132 -54 -244 -98 -248 -96 -5 1 -35 66 -67 142 -31 77 -75 184 -98 238 -22
53 -37 97 -33 97 4 0 148 -59 321 -130z m1404 23 c-25 -60 -68 -164 -96 -233
-28 -69 -54 -129 -59 -134 -4 -4 -116 37 -250 92 l-243 101 39 16 c22 9 173
71 335 139 162 68 300 124 307 125 7 1 -7 -45 -33 -106z m-1770 -193 c54 -132
97 -242 95 -244 -11 -9 -473 -196 -476 -192 -5 5 270 675 277 676 3 0 50 -108
104 -240z m2099 -96 c76 -185 136 -338 134 -340 -3 -3 -464 183 -476 193 -5 3
192 483 199 483 3 0 67 -152 143 -336z m-2436 174 c-7 -18 -67 -162 -132 -319
l-118 -286 -286 -118 c-157 -65 -302 -125 -321 -133 -26 -10 83 105 415 437
247 248 451 451 453 451 1 0 -4 -15 -11 -32z m2968 -419 c329 -329 441 -447
415 -436 -19 7 -164 67 -321 132 l-286 118 -118 286 c-65 157 -125 301 -132
319 -7 17 -12 32 -11 32 2 0 206 -203 453 -451z m-1445 171 c135 -56 251 -104
258 -107 12 -5 -495 -223 -518 -223 -4 0 -125 49 -269 109 l-262 108 263 111
c145 60 268 108 273 107 6 -2 120 -49 255 -105z m-672 -325 c117 -48 211 -89
210 -90 -6 -6 -682 -285 -684 -282 -1 1 43 111 98 244 l101 242 31 -13 c17 -7
127 -52 244 -101z m1201 -131 c54 -131 98 -240 97 -241 -2 -2 -538 218 -670
275 -14 6 40 32 225 109 134 55 245 100 246 99 1 -1 47 -110 102 -242z m-1767
-64 l-109 -263 -262 -109 c-145 -60 -264 -108 -265 -106 -1 2 47 121 107 264
l109 262 261 109 c144 60 263 108 265 107 2 -1 -46 -120 -106 -264z m2374 47
c2 -2 53 -121 113 -266 77 -185 104 -260 92 -256 -9 3 -128 52 -265 109 l-249
103 -104 249 c-57 137 -106 256 -108 265 -4 12 70 -14 256 -92 144 -60 264
-110 265 -112z m-913 -222 c260 -108 477 -201 484 -208 13 -13 403 -949 403
-967 0 -18 -390 -954 -403 -967 -13 -13 -948 -403 -966 -403 -18 0 -955 390
-968 403 -13 13 -403 949 -403 967 0 18 390 954 403 967 13 13 944 402 965
403 7 0 225 -88 485 -195z m-2086 123 c-16 -42 -191 -464 -193 -467 -2 -2
-111 41 -243 95 -132 54 -237 102 -233 106 8 8 652 277 666 278 4 0 6 -6 3
-12z m3560 -131 c177 -72 323 -134 323 -137 0 -7 -480 -204 -484 -199 -2 3
-178 426 -194 468 -7 18 -36 29 355 -132z m-3942 -426 c66 -27 121 -53 122
-58 2 -4 -42 -116 -96 -248 -88 -212 -101 -237 -109 -215 -6 14 -69 167 -141
340 -72 173 -131 317 -131 321 0 7 40 -9 355 -140z m674 -197 c-78 -186 -142
-340 -143 -342 -2 -2 -80 182 -192 454 l-13 31 242 100 c133 55 243 100 244
99 1 -1 -61 -155 -138 -342z m2763 229 l207 -85 -13 -32 c-113 -276 -190 -456
-192 -454 -2 2 -236 565 -281 676 -4 10 4 9 33 -3 22 -9 132 -55 246 -102z
m757 -213 c-72 -173 -135 -326 -141 -340 -8 -22 -21 3 -109 215 -54 132 -98
244 -96 248 3 11 471 205 475 198 1 -4 -57 -148 -129 -321z m199 -881 l-3
-320 -132 320 -133 321 133 321 132 320 3 -320 c1 -177 1 -465 0 -642z m-3948
321 c0 -4 -49 -125 -108 -269 l-109 -263 -110 266 -111 266 111 266 110 266
109 -263 c59 -144 108 -265 108 -269z m3409 262 l109 -262 -111 -266 -110
-265 -37 88 c-20 48 -69 168 -110 266 l-73 177 109 264 c60 145 110 263 112
262 1 -2 51 -121 111 -264z m-3732 -945 c-3 -11 -471 -206 -475 -198 -1 4 57
148 129 321 72 173 135 326 141 340 8 22 21 -3 109 -215 54 -132 98 -244 96
-248z m552 139 c77 -187 139 -341 138 -342 -1 -1 -111 44 -244 99 l-242 100
13 31 c113 274 190 456 192 454 1 -2 65 -156 143 -342z m2870 99 c55 -132 98
-241 97 -242 -5 -5 -481 -201 -483 -199 -1 1 61 156 139 344 78 188 143 340
144 339 2 -2 48 -111 103 -242z m646 -103 c76 -183 136 -334 134 -336 -4 -3
-466 188 -475 197 -4 3 38 114 92 246 55 131 102 236 105 233 3 -4 68 -157
144 -340z m-3902 -519 c53 -130 95 -238 93 -240 -4 -5 -657 264 -668 275 -6 6
442 199 467 201 6 0 54 -106 108 -236z m3740 140 c130 -54 237 -100 237 -103
-1 -7 -671 -282 -676 -277 -5 5 189 477 196 477 3 0 112 -44 243 -97z m-3377
-57 l247 -103 104 -249 c57 -137 105 -256 108 -265 4 -12 -73 16 -257 93 -144
60 -263 110 -265 112 -2 1 -52 120 -112 265 -86 206 -105 260 -90 256 10 -3
129 -53 265 -109z m2838 -158 l-106 -256 -261 -109 c-144 -60 -263 -109 -265
-107 -2 1 46 120 106 264 l108 263 260 107 c142 60 260 105 262 101 1 -4 -45
-122 -104 -263z m-2039 -173 c182 -75 331 -138 333 -140 2 -2 -103 -46 -454
-191 l-32 -13 -85 207 c-47 114 -93 224 -102 246 -12 29 -13 37 -3 33 7 -2
162 -66 343 -142z m1409 108 c-8 -21 -54 -131 -101 -245 l-85 -207 -37 15
c-20 8 -130 54 -245 102 -115 47 -205 87 -200 89 5 2 158 66 339 142 182 77
333 139 338 140 4 1 0 -16 -9 -36z m-2673 -188 l286 -118 118 -286 c65 -157
125 -301 132 -318 7 -18 12 -33 11 -33 -2 0 -206 203 -453 451 -332 332 -441
447 -415 437 19 -8 164 -68 321 -133z m3949 142 c0 -1 -203 -205 -451 -452
-330 -330 -447 -441 -436 -415 7 19 67 164 132 321 l118 286 316 131 c332 138
321 133 321 129z m-1880 -396 l262 -108 -73 -31 c-41 -17 -161 -66 -266 -110
l-193 -80 -266 111 -266 110 259 108 c142 59 263 108 270 108 6 1 129 -48 273
-108z m-1328 -52 c123 -50 225 -93 227 -95 5 -5 -192 -484 -199 -484 -4 0
-248 587 -276 664 -6 15 -4 18 9 13 8 -3 116 -47 239 -98z m2364 84 c-27 -75
-272 -663 -276 -663 -7 0 -204 480 -199 483 8 6 464 195 473 196 4 1 5 -7 2
-16z m-1742 -342 c131 -54 234 -101 230 -103 -25 -15 -675 -280 -678 -277 -2
2 37 98 85 214 48 116 92 222 98 238 5 15 14 27 18 27 5 0 116 -44 247 -99z
m1225 -141 c54 -129 97 -237 95 -238 -2 -3 -325 128 -648 263 l-40 17 235 98
c129 54 240 97 247 96 8 0 57 -106 111 -236z m-456 -178 l308 -127 -320 -3
c-177 -1 -465 -1 -642 0 l-320 3 318 132 c175 72 325 130 333 127 8 -2 154
-62 323 -132z"/>
</g>
</svg>
